# xmcd
#
# Track frame offsets:
#	150
#	12459
#	21737
#	32953
#	50711
#	62140
#	80640
#	86413
#	98275
#	108355
#	118795
#	130518
#	148291
#	159513
#	175613
#	185091
#	198058
#	213643
#	227845
#	243739
#	256890
#	271525
#	283103
#	296008
#	307310
#	317327
#	336397
#
# Disc length: 4607 seconds
# Revision: 0
# Processed by: cddbd v1.5PL3 Copyright (c) Steve Scherf et al.
# Submitted via: cdrLabel 7.1
#
DISCID=9511fd1b
DTITLE=Mix - Velkej Vandr
DYEAR=2003
DGENRE=Country
TTITLE0=Trampsk spoleenstv Vandr - Trampe, kamarde...
TTITLE1=Trampsk spoleenstv Vandr - Kapkami si de...
TTITLE2=Honza Vyital a Greenhorns - Kabalero
TTITLE3=Trampsk legendy - Je na zpad cesta dlouh
TTITLE4=T. O. Rowers and T. O. Karabina - Hej, Jackie!
TTITLE5=Wabi and Miky Ryvolove a jejich kamardi - Tereza
TTITLE6=alman a spol. - Pse poslednho vagnu
TTITLE7=Duo ervek - Kak
TTITLE8=Sestry Havelkovy - Franta zddil ponorku
TTITLE9=Trampsk spoleenstv Vandr - Zpov
TTITLE10=T E band and Rowers and Karabina - Mexick svatba
TTITLE11=T E band and Rowers and Karabina - Poj do moji chaty
TTITLE12=Pacifik - Dl, Dl, Dl
TTITLE13=Trampsk spoleenstv Vandr - teek
TTITLE14=Vandr - Ruty - uty Arizna, Texas
TTITLE15=Nezmai - Mm tady stt
TTITLE16=Tramp evergreen band and Rowers and Karabina - Pse o nos
TTITLE17=Trampsk spoleenstv Vandr - Slunko zlat a zaz
TTITLE18=W and M Ryvolov - Ze vech chlap nejastnj chlap
TTITLE19=Trampsk spoleenstv Vandr - Quantanamo
TTITLE20=Kluci Luby - Pad soumrak bled
TTITLE21=Duo EKG-M - Pravideln v sobotu
TTITLE22=tchovick  trampgrass - Prodm boudu
TTITLE23=T. O. dol dsu - Chechtav
TTITLE24=Sestry Havelkovy - N Karel
TTITLE25=alman a spol. - Kouovej Signl
TTITLE26=Wabi and Miky Ryvolov a jejich kamardi - Posledn pse
EXTD=
EXTT0=
EXTT1=
EXTT2=
EXTT3=
EXTT4=
EXTT5=
EXTT6=
EXTT7=
EXTT8=
EXTT9=
EXTT10=
EXTT11=
EXTT12=
EXTT13=
EXTT14=
EXTT15=
EXTT16=
EXTT17=
EXTT18=
EXTT19=
EXTT20=
EXTT21=
EXTT22=
EXTT23=
EXTT24=
EXTT25=
EXTT26=
PLAYORDER=
